Coordinates
version=1
nRows=8
nColumns=42
inDegrees=yes

Units are S.I. units (second, meters, Newtons, ...)
If the header above contains a line with 'inDegrees', this indicates whether rotational values are in degrees (yes) or radians (no).

endheader
time	pelvis_tilt	pelvis_list	pelvis_rotation	pelvis_tx	pelvis_ty	pelvis_tz	hip_flexion_r	hip_adduction_r	hip_rotation_r	knee_angle_r	knee_angle_r_beta	ankle_angle_r	subtalar_angle_r	mtp_angle_r	hip_flexion_l	hip_adduction_l	hip_rotation_l	knee_angle_l	knee_angle_l_beta	ankle_angle_l	subtalar_angle_l	mtp_angle_l	lumbar_extension	lumbar_bending	lumbar_rotation	sh_tx_r	sh_ty_r	sh_tz_r	sh_plane_elev_r	sh_elev_r	sh_axial_rot_r	elbow_flex_r	pro_sup_r	sh_tx_l	sh_ty_l	sh_tz_l	sh_plane_elev_l	sh_elev_l	sh_axial_rot_l	elbow_flex_l	pro_sup_l
      6.05084750	     -7.76315081	     -0.02545093	      1.01027537	      0.28116322	      0.93452817	     -0.03320051	      4.81276492	     -5.52650130	     -5.87366730	      0.75012726	      0.01309219	      3.69227599	      2.75633947	     -7.49999987	      6.49777810	     -3.39914239	     -6.70031318	      1.85406801	      0.03235959	      9.05251461	      4.66562697	     -7.49999987	     -0.30550280	     -9.01363721	      7.30528133	     -0.01088793	      0.04027631	     -0.00599221	    -22.10503975	     76.50890917	     36.48831395	    100.98491729	     85.37131424	     -0.00458779	      0.00304130	     -0.00618082	     27.66706418	     11.62277621	     -2.26557113	     24.96596726	     54.85224635
      6.06779660	     -7.73510349	     -0.03254662	      1.00654488	      0.28106191	      0.93458188	     -0.03321753	      4.79033147	     -5.52608085	     -5.87769379	      0.71364160	      0.01245540	      3.64663144	      2.75978140	     -7.49999987	      6.46116605	     -3.41167933	     -6.54984765	      1.86596847	      0.03256729	      9.06066333	      4.31172573	     -7.49999987	     -0.41138863	     -8.99959372	      7.02197674	     -0.01073748	      0.04082940	     -0.00600697	    -21.66726175	     76.32007080	     36.29107951	    100.65910841	     89.39939094	     -0.00613131	      0.00260863	     -0.00614115	     28.78491131	     11.75232444	     -3.00467476	     25.09418145	     54.35132341
      6.08474580	     -7.73980772	     -0.03002918	      1.00561949	      0.28106604	      0.93434055	     -0.03320927	      4.81074187	     -5.53977819	     -5.80813101	      0.69578331	      0.01214371	      3.59594493	      2.70176062	     -7.49999987	      6.45094215	     -3.42346328	     -6.52986768	      1.87476668	      0.03272085	      9.07067919	      4.09469937	     -7.49999987	     -0.40736382	     -9.00440751	      7.09292384	     -0.01082078	      0.04072593	     -0.00599931	    -21.71350131	     76.27024715	     36.35272245	    100.61519123	     89.55997802	     -0.00626420	      0.00231642	     -0.00613450	     28.73597083	     11.76948435	     -2.81972824	     25.37073085	     54.51818633
      6.10169490	     -7.79235732	     -0.02327960	      1.01612946	      0.28107485	      0.93358178	     -0.03324665	      4.88978214	     -5.55886233	     -5.77980460	      0.68562932	      0.01196649	      3.52814242	      2.75923666	     -7.49999987	      6.50470842	     -3.42444711	     -6.51392604	      1.90291181	      0.03321208	      9.08415865	      3.87922413	     -7.49999987	     -0.32506275	     -9.02843097	      6.92154620	     -0.01035068	      0.04005027	     -0.00596918	    -21.45872904	     76.40898782	     36.57941718	    100.77589807	     85.97918992	     -0.00634790	      0.00243234	     -0.00605861	     26.68664838	     11.51548369	     -2.65012795	     25.94131697	     55.36845870
      6.11864410	     -7.67925692	     -0.01785300	      1.04755774	      0.28104123	      0.93344590	     -0.03324052	      4.78394790	     -5.56327489	     -5.78581459	      0.67314913	      0.01174867	      3.50291056	      2.93509476	     -7.49999987	      6.37058488	     -3.42978408	     -6.51476773	      1.90476639	      0.03324445	      9.10968419	      3.77763477	     -7.49999987	     -0.62523929	     -9.06666262	      6.98867598	     -0.01190801	      0.04063013	     -0.00599000	    -21.47623490	     76.21451336	     36.37670293	    100.48778635	     87.83628174	     -0.00769233	      0.00262497	     -0.00606980	     26.90441819	     11.78870801	     -2.35090425	     26.24213463	     55.83573415
      6.13559320	     -7.76350536	     -0.00800295	      1.04891138	      0.28109423	      0.93381020	     -0.03315405	      4.90639793	     -5.56672995	     -5.64958052	      0.67063105	      0.01170472	      3.41369829	      2.98159908	     -7.49999987	      6.45162634	     -3.42797407	     -6.50552432	      1.91153837	      0.03336264	      9.09494940	      3.64669691	     -7.49999987	     -0.41344129	     -9.09288742	      7.44657059	     -0.01203976	      0.04018752	     -0.00594990	    -22.00246411	     76.14552423	     36.65213020	    100.40299634	     87.69732678	     -0.00643966	      0.00266289	     -0.00601893	     26.60201571	     11.77761446	     -1.73634211	     26.22120451	     55.76585264
      6.15254240	     -7.98611980	      0.03227534	      1.08671821	      0.28057337	      0.93421723	     -0.03293226	      5.44314247	     -5.62735224	     -5.58354598	      1.17134650	      0.02044385	      3.44340610	      2.86427393	     -7.49999987	      6.96169802	     -3.43721531	     -6.81526855	      2.40841443	      0.04203476	      9.40604240	      4.09396777	     -7.49999987	     -0.24998425	     -9.32779388	      7.49204418	     -0.01165963	      0.03837625	     -0.00535294	    -22.31964763	     75.73635671	     36.49635814	    100.18799042	     86.51744256	     -0.00646531	      0.00373635	     -0.00558220	     26.27044325	     11.94262995	     -0.59599044	     26.39740668	     55.79888938
      6.16949150	     -7.81890872	     -0.00211898	      1.09870768	      0.28111337	      0.93476537	     -0.03309726	      4.97742162	     -5.57309698	     -5.58549668	      0.63660040	      0.01111077	      3.28506895	      3.27992666	     -7.49999987	      6.50721986	     -3.41265290	     -6.45281902	      1.87562098	      0.03273576	      9.06761831	      3.58810495	     -7.49999987	     -0.35594607	     -9.09448124	      7.03234189	     -0.01122489	      0.04055582	     -0.00596267	    -21.51367910	     75.40288043	     36.45684655	     99.70434326	     88.42294226	     -0.00713345	      0.00212148	     -0.00602693	     26.79510662	     11.75759459	     -2.32652039	     25.65506217	     55.49826577
